<svg xmlns="http://www.w3.org/2000/svg" xml:space="preserve" style="fill-rule:evenodd;clip-rule:evenodd;stroke-linejoin:round;stroke-miterlimit:2" viewBox="0 0 681 292"><path d="M9.783 211.571h639.563c11.674-.007 21.282-9.605 21.3-21.279V9.783H31.075c-11.673.012-21.276 9.611-21.292 21.284v180.504Zm639.563 9.779H0V31.067C.004 13.933 13.938 0 31.075 0h649.354v190.292c0 17.125-13.946 31.058-31.083 31.058Z" style="fill:#fff;fill-rule:nonzero"/><path d="M675.538 4.883H31.075C16.721 4.899 4.914 16.704 4.896 31.058v185.4h644.45c14.446 0 26.192-11.741 26.192-26.175V4.883Z" style="fill:#46322b;fill-rule:nonzero"/><path d="M607.163 105.454h-21.192l-3.546 19.159h-17.171l48.142-70.271h-24.263l-48.608 70.95-.179.279-3.675 19.892h41.896L575.875 160h21.2l2.692-14.542h9.358l3.858-20.846-9.358.001 3.538-19.159Zm-114.096 34.567h37.562L526.933 160h-65.55l3.555-19.196 46.9-44.846c4.575-4.483 6.391-7.387 7.162-11.52.65-3.53.167-6.4-1.412-8.292-1.459-1.758-3.892-2.683-7.055-2.683-3.379 0-11.441 1.158-13.412 11.816l-.238 1.292h-21.908l.333-1.863c3.413-18.379 19.163-31.225 38.338-31.225 9.658 0 17.642 3.192 22.483 9.021 4.721 5.688 6.342 13.513 4.65 22.634-1.937 10.495-7.246 16.187-15.741 24.32l-31.971 30.563Z" style="fill:#f18700;fill-rule:nonzero"/><path d="M417.558 71.921h15.675V56.25h-15.675v15.671Zm.438 88.125H432.8v-73.6h-14.804v73.6Zm-19.879 0V56.679h-14.821v37.175c-5.367-6.387-11.471-8.279-19.304-8.279-7.413 0-13.792 2.475-17.859 6.529-7.125 7.259-8.279 19.013-8.279 31.067 0 12.196 1.154 23.958 8.279 31.212 4.063 4.071 10.592 6.538 18 6.538 7.984 0 13.938-2.038 19.459-8.713v7.838h14.525Zm-30.063-61.254c13.367 0 15.25 11.321 15.25 24.383 0 13.067-1.883 24.538-15.25 24.538-13.491 0-15.383-11.471-15.383-24.538 0-13.062 1.892-24.383 15.383-24.383Zm-45.862 61.254v-47.029c0-8.271-2.179-15.242-7.834-20.771-4.366-4.196-11.041-6.671-18.587-6.671-9.733 0-17.133 3.488-23.083 10.75-4.646-7.121-11.759-10.75-20.905-10.75-7.408 0-14.658 2.904-19.6 8.279v-7.408h-14.52v73.596h14.808v-44.85c0-11.329 6.967-16.404 15.242-16.404 8.287 0 14.816 4.933 14.816 16.404v44.85h14.804v-45.584c0-10.6 7.25-15.675 15.25-15.675 8.263 0 14.796 4.934 14.796 16.405v44.854h14.813v.004Zm-123.684 0v-49.208c0-16.559-10.016-25.263-30.337-25.263-12.342 0-19.458 2.625-26.288 10.75l9.588 9.138c4.212-5.225 8.283-7.255 16.117-7.255 11.612 0 16.108 4.342 16.108 13.784v5.229h-19.304c-16.979 0-25.55 8.862-25.55 21.196 0 6.241 2.029 11.908 5.808 15.816 4.5 4.509 10.596 6.688 19.742 6.688 9.15 0 14.229-2.179 19.596-7.554v6.679h14.52Zm-14.812-26.567c0 5.225-.863 8.709-3.192 10.896-3.916 3.629-8.133 4.208-13.358 4.208-9.725 0-13.933-3.633-13.933-10.458 0-6.812 4.5-10.596 13.5-10.596h16.983v5.95Zm-67.492 26.563-20.616-33.959-10.892 12.338v21.629H69.883V56.679h14.813v63.738l28.596-33.967h18l-25.542 28.892 28.742 44.708H116.2l.004-.008Z" style="fill:#45b4e7;fill-rule:nonzero"/><path d="m663.575 273.996-3.392-3.433-2.941 2.941 3.733 3.684c-1.079.833-2.308 1.179-3.633 1.179-2.109 0-3.879-.834-5.2-2.213-1.771-1.862-2.067-3.925-2.067-10.846 0-6.916.296-9.029 2.067-10.887a7 7 0 0 1 5.2-2.167c2.112 0 3.879.792 5.204 2.167 1.767 1.862 2.062 3.971 2.062 10.887 0 4.521-.1 6.875-1.033 8.688Zm4.075 4.075c2.146-3.042 2.246-6.429 2.246-12.763 0-7.304-.1-10.791-3.525-14.229-2.25-2.25-5.204-3.521-9.029-3.521-3.821 0-6.775 1.267-9.025 3.521-3.429 3.434-3.529 6.925-3.529 14.229 0 7.317.1 10.796 3.529 14.23 2.25 2.254 5.204 3.529 9.025 3.529 2.9 0 5.4-.784 7.316-2.154l3.471 3.433 2.946-2.896-3.425-3.379Zm-40.475-.042h-8.35v-10.654h8.35c3.679 0 5.742 2.208 5.742 5.3 0 3.092-2.063 5.354-5.742 5.354Zm-8.35-25.416h7.863c3.379 0 5.691 1.758 5.691 5 0 3.241-2.312 5.008-5.691 5.008h-7.863v-10.013.005Zm14.142 12.208c2.35-.921 4.704-3.625 4.704-7.404 0-5.888-4.071-9.567-10.546-9.567h-13.587v34.929h14.129c6.179 0 10.537-3.425 10.537-9.862 0-4.417-2.546-7.009-5.237-8.092v-.004Zm-38.317 13.208h-8.342v-10.654h8.342c3.675 0 5.742 2.208 5.742 5.3 0 3.092-2.067 5.354-5.742 5.354Zm-8.342-25.416h7.85c3.388 0 5.696 1.758 5.696 5 0 3.241-2.308 5.008-5.696 5.008h-7.85v-10.013.005Zm14.13 12.208c2.349-.921 4.704-3.625 4.704-7.404 0-5.888-4.067-9.567-10.542-9.567h-13.592v34.929h14.13c6.187 0 10.541-3.425 10.541-9.862 0-4.417-2.546-7.009-5.242-8.092v-.004Zm-47.962 26.842h4.408v-52.73h-4.408v52.73Zm-37.867-43.813h-5.296v34.925h22.121v-4.75h-16.825V247.85Zm-28.154 0h-5.296v34.925h22.117v-4.75h-16.821V247.85Zm-19.712 34.925h5.287V247.85h-5.287v34.925Zm-26.842-19.217v-10.95h7.85c3.533 0 5.937 2.059 5.937 5.492 0 3.438-2.404 5.458-5.937 5.458h-7.85Zm19.083-5.504c0-5.933-4.216-10.204-10.846-10.204h-13.533v34.925h5.296v-14.717h6.621l7.358 14.717h6.179l-8.041-15.45c3.925-1.075 6.966-4.262 6.966-9.271Zm-44.937 10.35h7.462v1.959c0 2.262-.441 4.025-1.721 5.5-1.37 1.612-3.433 2.5-5.741 2.5-2.113 0-3.875-.784-5.204-2.155-1.721-1.87-2.063-3.983-2.063-10.9 0-6.916.342-9.025 2.063-10.887 1.325-1.375 3.091-2.167 5.204-2.167 3.925 0 6.479 2.258 7.358 6.096h5.3c-.933-5.946-5.3-10.792-12.658-10.792-3.833 0-6.775 1.271-9.029 3.521-3.375 3.434-3.525 6.925-3.525 14.229 0 7.317.145 10.796 3.525 14.23 2.254 2.254 5.2 3.533 9.029 3.533 3.679 0 7.021-1.225 9.612-3.975 2.305-2.5 3.138-5.296 3.138-9.863v-5.341h-12.75v4.512Zm-39.817 23.259h4.409v-52.73h-4.409v52.73Zm-41.841-28.105v-10.95h7.854c3.533 0 5.941 2.059 5.941 5.492 0 3.438-2.408 5.458-5.941 5.458h-7.854Zm19.083-5.504c0-5.933-4.209-10.204-10.834-10.204h-13.537v34.925h5.292v-14.717h6.625l7.362 14.717h6.175l-8.037-15.45c3.916-1.075 6.958-4.262 6.958-9.271h-.004Zm-49.592 13.204 5.446-15.508 5.296 15.508H301.88Zm3.183-23.408-12.8 34.925h5.646l2.396-7.012h13.792l2.404 7.012h5.642l-12.809-34.925h-4.271Zm-31.495 0h-5.292v34.925h22.125v-4.75h-16.833V247.85Zm-20.5 28.304c-1.325 1.375-3.084 2.209-5.196 2.209-2.109 0-3.875-.834-5.204-2.209-1.717-1.862-2.063-3.925-2.063-10.846 0-6.916.346-9.025 2.063-10.887 1.329-1.375 3.095-2.167 5.208-2.167 2.108 0 3.867.792 5.192 2.167 1.766 1.817 2.062 3.975 2.062 10.887 0 6.917-.292 9.03-2.062 10.846Zm-5.196-28.596c-3.834 0-6.775 1.271-9.029 3.521-3.434 3.434-3.525 6.925-3.525 14.229 0 7.317.091 10.796 3.525 14.234 2.25 2.25 5.195 3.529 9.029 3.529 3.825 0 6.771-1.279 9.025-3.529 3.429-3.438 3.529-6.917 3.529-14.234 0-7.304-.1-10.791-3.525-14.229-2.258-2.25-5.204-3.521-9.029-3.521Zm-27.721 15.492-4.167-.629c-1.916-.3-2.95-.788-3.833-1.575-.933-.788-1.275-1.958-1.275-3.238 0-3.187 2.208-5.446 6.333-5.446 2.992 0 5.542.638 7.7 2.696l3.334-3.333c-2.988-2.792-6.175-3.967-10.838-3.967-7.262 0-11.671 4.113-11.671 10.196 0 2.9.879 5.15 2.592 6.725 1.521 1.467 3.725 2.35 6.575 2.792l4.121.591c1.766.242 2.946.688 3.833 1.475.979.834 1.371 2.055 1.371 3.625 0 3.438-2.604 5.401-7.217 5.401-3.533 0-6.421-.834-8.975-3.388l-3.475 3.487c3.379 3.384 7.104 4.605 12.35 4.605 7.363 0 12.559-3.825 12.559-10.25 0-3.042-.975-5.442-2.842-7.167-1.521-1.367-3.279-2.108-6.475-2.6Zm-41.05 28.612h4.408v-52.729h-4.408v52.729Zm-29.417-19.287-16.141-24.525h-4.855v34.925h5.292v-24.567l16.15 24.571h4.85v-34.925h-5.292v24.529l-.004-.008Zm-35.416 10.4h5.291V247.85h-5.291v34.925ZM89.88 269.583 79.676 247.85H74.38v34.925h5.296v-23.342l8.242 17.017h3.925l8.045-17.017v23.342h5.296V247.85h-5.291L89.88 269.583Zm-40.708 1.675 5.441-15.508 5.3 15.508H49.172Zm3.183-23.408-12.804 34.925h5.642l2.404-7.013h13.787l2.396 7.013h5.65L56.626 247.85h-4.271Zm-16.092 0h-6.479l-14.271 17.567V247.85h-5.291v34.925h5.291v-10.15l5.88-7.058 9.816 17.212h6.229L24.93 261.537l11.333-13.683v-.004Z" style="fill:#ffffff;fill-rule:nonzero"/></svg>
